<?xml version="1.0" ?><!DOCTYPE svg  PUBLIC '-//W3C//DTD SVG 1.1//EN'  'http://www.w3.org/Graphics/SVG/1.1/DTD/svg11.dtd'><svg id="Layer_1" style="enable-background:new 0 0 126 126;" version="1.1" viewBox="0 0 126 126" xml:space="preserve" xmlns="http://www.w3.org/2000/svg" xmlns:xlink="http://www.w3.org/1999/xlink"><style type="text/css">
	.st0{fill:#F4F4F4;}
	.st1{fill:none;stroke:#49CBD8;stroke-width:4;stroke-linecap:round;stroke-linejoin:round;stroke-miterlimit:10;}
</style><circle class="st0" cx="63" cy="63" r="62"/><g><g><circle class="st1" cx="70.7" cy="70.7" r="15.8"/></g><g><polygon class="st1" points="80.3,37.5 80.3,48.1 41.5,48.1 29,74.4 29,29 38.5,29 42.1,37.5   "/><g><path class="st1" d="M70.7,54.9c6.5,0,12,3.9,14.4,9.4l7.7-16.2H41.5L29,74.4h26.3c-0.3-1.2-0.4-2.4-0.4-3.7     C54.9,62,62,54.9,70.7,54.9z"/></g><g><path class="st1" d="M95.8,90.2L84.3,78.7C83,81,81,83,78.7,84.3l11.5,11.5c1.6,1.6,4.1,1.6,5.7,0C97.4,94.3,97.4,91.7,95.8,90.2     z"/></g></g></g></svg>